<?xml version="1.0" encoding="utf-8"?>
<!-- Generator: Adobe Illustrator 16.0.0, SVG Export Plug-In . SVG Version: 6.00 Build 0)  -->
<!DOCTYPE svg PUBLIC "-//W3C//DTD SVG 1.1//EN" "http://www.w3.org/Graphics/SVG/1.1/DTD/svg11.dtd">
<svg version="1.1" id="Capa_1" xmlns="http://www.w3.org/2000/svg" xmlns:xlink="http://www.w3.org/1999/xlink" x="0px" y="0px"
	 width="629px" height="346px" viewBox="0 0 629 346" enable-background="new 0 0 629 346" xml:space="preserve">
<g>
	<g>
		<path fill="#FFFFFF" d="M272.303,295.094c-1.445,0-2.896-0.09-4.352-0.267c-4.86-0.585-9.407-2.32-13.53-5.155
			c-3.477-2.482-6.201-5.598-8.322-9.497c-2.325,3.059-5.579,5.517-9.508,7.119c-6.178,2.45-12.202,3.111-17.871,2.051
			c-6.026-1.156-11.447-4.129-15.689-8.604c-2.117-2.226-3.938-4.827-5.431-7.742c-0.605-0.062-1.194-0.147-1.685-0.248
			c-3.285-0.671-6.325-2.169-8.929-4.375c-1.548,1.693-3.241,3.187-5.056,4.466c-5.034,3.533-10.957,5.326-17.608,5.326
			c-4.625,0-8.876-0.837-12.636-2.492c-0.326-0.147-0.646-0.295-0.963-0.446c-0.405,0.189-0.813,0.371-1.227,0.546
			c-8.292,3.534-18.309,3.049-26.076-0.774c-0.365,1.873-0.895,3.647-1.584,5.307c-3.222,7.742-10.325,12.908-19,13.821
			c-0.57,0.075-1.523,0.138-2.499,0.138c-2.806,0-5.654-0.509-8.463-1.508c-3.472-1.256-6.696-3.248-9.595-5.926
			c-2.689-2.478-5.033-5.646-6.972-9.402c-1.785-3.467-3.091-7.391-3.992-11.994c-0.807-4.104-1.182-8.693-1.149-14.034
			c0.018-2.254,0.136-4.688,0.354-7.271c-0.513,0.052-1.027,0.1-1.541,0.138c-5.355,0.438-11.361-0.399-17.035-2.497
			c-5.964-2.202-10.753-5.648-14.229-10.244c-3.082-4.062-5.1-8.568-5.997-13.401c-0.821-4.456-0.751-8.927,0.207-13.292
			c0.898-4.176,2.442-7.942,4.582-11.19c2.842-4.309,6.518-7.472,10.926-9.397c7.205-3.187,15.725-1.955,21.962,3.281
			c0.595,0.485,1.206,0.918,1.743,1.228c0.109,0.019,0.254,0.042,0.433,0.062c1.405,0.156,3.126,0.047,5.094-0.181
			c2.941-0.323,6.821-1.004,11.54-2.021c3.834-0.903,8.06-1.779,12.347-2.567c4.695-0.852,9.314-1.408,13.738-1.655
			c4.872-0.29,9.613-0.091,14.079,0.565c5.551,0.809,10.665,2.588,15.197,5.283c5.28,3.229,9.112,7.324,11.409,12.185
			c1.144,2.407,1.947,4.889,2.396,7.409c2.314-0.284,4.621-0.337,7.139-0.156c12.72,1.16,18.467,8.295,20.764,12.445
			c0.262,0.472,0.504,0.952,0.734,1.437c1.389,0.771,2.685,1.756,3.843,2.915c1.006-0.999,2.02-1.874,3.056-2.644
			c1.637-1.274,3.577-2.401,5.749-3.339c0.652-1.717,1.347-3.409,2.104-5.069c2.487-5.536,5.717-10.577,9.597-14.977
			c4.209-4.774,9.273-8.659,15.042-11.546c6.212-3.102,13.26-4.676,20.95-4.676c6.967,0,13.34,1.488,18.933,4.424
			c4.361,2.287,8.275,5.245,11.661,8.803c6.026-5.931,14.024-9.051,23.303-9.051c6.312,0,11.52,1.298,15.913,3.966
			c1.347,0.823,2.645,1.831,3.953,3.058c13.963-1.887,22.019,4.291,26.209,9.133c1.374,1.592,2.602,3.434,3.604,5.406
			c4.874-0.761,9.312-0.266,13.192,0.861c0.642,0.186,1.27,0.39,1.884,0.608c4.171-1.556,8.688-2.136,13.729-1.741
			c4.618,0.42,8.713,1.707,12.213,3.834c1.199-0.67,2.359-1.227,3.51-1.679c1.76-0.689,3.558-1.228,5.35-1.594
			c1.166-3.157,2.659-6.03,4.462-8.556c6.106-8.574,15.694-13.297,26.998-13.297c6.312,0,11.52,1.298,15.913,3.966
			c5.136,3.144,8.822,7.737,10.663,13.298c0.403,1.236,0.718,2.524,0.946,3.842c6.059-0.327,12.09,0.652,17.234,2.797
			c4.86,2.036,9.022,4.984,12.37,8.774c1.793,2.05,3.324,4.328,4.58,6.811c3.956-6.602,8.584-11.984,13.754-16.003
			c6.672-5.194,13.63-7.823,20.678-7.823c4.49,0,8.846,1.308,12.693,3.79c4.898-2.516,9.769-3.79,14.506-3.79
			c9.496,0,17.795,4.114,23.374,11.585c4.562,6.102,6.872,13.235,6.872,21.191c0,9.883-3.376,19.037-10.029,27.199
			c-9.389,11.522-20.488,13.938-28.146,13.938c-6.106,0-11.746-1.722-16.436-4.993c-8.998,5.777-20.864,6.838-29.828,2.42
			c-6.44,3.415-14.259,3.363-20.603-0.076c-5.632,3.216-11.976,4.842-18.876,4.842c-5.964,0-11.495-1.18-16.46-3.515
			c-8.209,4.356-18.771,4.622-27.193,0.928c-0.4,0.181-0.808,0.352-1.222,0.523c-4.062,1.631-8.441,2.345-12.927,2.025
			c-4.047-0.204-7.962-1.15-11.628-2.815c-7.762,3.634-17.72,3.657-25.225,0.751c-0.314-0.119-0.623-0.241-0.933-0.371
			c-0.423,0.182-0.846,0.362-1.283,0.529c-3.915,1.545-8.123,2.226-12.622,1.906c-4.033-0.204-7.957-1.15-11.651-2.811
			c-8.571,4.005-19.565,3.6-27.476-0.062c-2.657,1.251-5.54,2.098-8.603,2.526c-1.56,2.734-3.562,5.174-6.025,7.404
			c-2.341,2.111-5.051,3.98-8.057,5.564c-3.187,1.679-6.61,2.896-10.178,3.619C277.106,294.851,274.7,295.094,272.303,295.094z
			 M246.384,268.381l2.221,5.621c0.314,0.794,0.646,1.564,0.994,2.307c1.869,3.98,4.361,7.048,7.618,9.373
			c3.43,2.364,7.249,3.819,11.314,4.314c3.32,0.385,6.688,0.271,9.944-0.399c3.12-0.633,6.106-1.693,8.879-3.153
			c2.654-1.398,5.027-3.034,7.062-4.865c2.373-2.149,4.232-4.509,5.517-7.006l0.6-1.198l1.389-0.28
			c3.372-0.338,6.482-1.246,9.245-2.706l1.128-0.595l1.131,0.59c3.734,1.936,8.151,2.915,13.131,2.915
			c4.38,0,8.447-0.956,12.084-2.844l1.1-0.566l1.103,0.547c3.41,1.688,7.072,2.64,10.887,2.835
			c3.985,0.252,7.296-0.295,10.548-1.574c0.681-0.271,1.341-0.557,1.983-0.866l1.037-0.499l1.041,0.48
			c0.552,0.253,1.113,0.495,1.688,0.714c6.597,2.554,15.585,2.431,22.333-1.075l1.099-0.575l1.113,0.557
			c3.376,1.688,7.023,2.644,10.848,2.839c4.113,0.262,7.447-0.328,10.814-1.684c0.666-0.271,1.318-0.557,1.95-0.875l1.075-0.532
			l1.074,0.527c7.576,3.687,17.459,3.438,24.83-0.898l1.16-0.686l1.193,0.619c4.57,2.358,9.756,3.557,15.414,3.557
			c6.501,0,12.412-1.636,17.567-4.865l1.299-0.812l1.299,0.817c5.426,3.438,12.44,3.51,17.996,0.11l1.217-0.747l1.246,0.703
			c3.286,1.846,7.015,2.782,11.086,2.782c5.926,0,11.391-1.773,16.241-5.27l1.503-1.084l1.445,1.161
			c4.08,3.28,9.212,5.013,14.843,5.013c6.602,0,16.188-2.107,24.369-12.143c5.93-7.276,8.936-15.394,8.936-24.126
			c0-6.886-1.988-13.035-5.902-18.281c-7.171-9.598-19.888-13.055-32.947-5.73l-1.37,0.766l-1.265-0.933
			c-3.353-2.473-7.087-3.729-11.091-3.729c-5.94,0-11.89,2.288-17.691,6.797c-4.789,3.724-9.089,8.783-12.784,15.037
			c-0.765,1.299-1.393,2.611-2.021,3.919l-2.625,5.479l-1.889-5.774c-1.255-3.848-3.162-7.242-5.659-10.092
			c-2.849-3.229-6.415-5.755-10.587-7.5c-5.069-2.116-11.309-2.863-17.225-2.258l-2.454,0.252l-0.219-2.454
			c-0.161-1.803-0.509-3.538-1.037-5.155c-1.469-4.438-4.433-8.128-8.57-10.654c-3.604-2.192-7.984-3.257-13.378-3.257
			c-9.682,0-17.862,3.994-23.031,11.252c-1.803,2.53-3.201,5.35-4.285,8.632l-0.467,1.417l-1.469,0.229
			c-1.927,0.299-3.872,0.832-5.778,1.583c-1.304,0.51-2.635,1.189-4.076,2.079l-1.365,0.836l-1.312-0.917
			c-3.072-2.149-6.828-3.443-11.156-3.838c-4.48-0.362-8.676,0.223-12.37,1.75l-0.908,0.376l-0.918-0.362
			c-0.762-0.299-1.551-0.57-2.364-0.803c-3.614-1.052-7.766-1.484-12.74-0.424l-1.969,0.419l-0.785-1.854
			c-0.918-2.179-2.178-4.219-3.629-5.902c-3.062-3.539-8.703-7.757-18.167-7.757c-1.498,0-3.024,0.138-4.804,0.428l-1.24,0.205
			l-0.89-0.899c-1.351-1.369-2.593-2.383-3.914-3.191c-3.605-2.192-7.984-3.257-13.379-3.257c-8.826,0-16.269,3.248-21.514,9.392
			l-1.86,2.184l-2.145-2.578c-3.287-3.822-7.234-6.962-11.709-9.311c-4.889-2.564-10.495-3.862-16.669-3.862
			c-6.929,0-13.245,1.397-18.771,4.161c-5.207,2.605-9.773,6.111-13.568,10.415c-3.557,4.033-6.52,8.66-8.812,13.754
			c-0.851,1.884-1.632,3.805-2.34,5.75l-0.376,1.031l-1.022,0.399c-2.159,0.843-4.042,1.889-5.606,3.102
			c-1.45,1.08-2.82,2.382-4.237,4.019l-2.012,2.33l-1.804-2.496c-1.293-1.793-2.879-3.149-4.717-4.033l-0.82-0.395l-0.358-0.833
			c-0.27-0.623-0.562-1.227-0.89-1.816c-1.831-3.311-6.462-8.998-16.9-9.949c-2.826-0.194-5.669-0.057-8.332,0.499l-2.701,0.567
			l-0.224-2.755c-0.229-2.825-0.996-5.631-2.283-8.332c-1.914-4.052-5.025-7.353-9.522-10.101c-3.957-2.355-8.469-3.92-13.386-4.633
			c-4.147-0.608-8.553-0.774-13.1-0.527c-4.226,0.237-8.646,0.775-13.139,1.588c-4.201,0.771-8.346,1.626-12.152,2.521
			c-4.923,1.065-8.97,1.773-12.071,2.116c-2.402,0.271-4.52,0.376-6.175,0.182c-0.448-0.053-0.781-0.11-0.997-0.157h-0.328
			l-0.526-0.267c-0.906-0.471-1.907-1.151-2.896-1.964c-4.854-4.076-11.355-5.004-16.893-2.568
			c-3.538,1.551-6.503,4.113-8.817,7.623c-1.808,2.74-3.117,5.954-3.89,9.545c-0.82,3.733-0.877,7.557-0.176,11.372
			c0.756,4.075,2.468,7.894,5.091,11.342c2.908,3.848,6.956,6.743,12.035,8.623c5.003,1.845,10.166,2.62,14.961,2.206
			c1.437-0.104,2.847-0.281,4.248-0.514l3.174-0.533l-0.353,3.201c-0.395,3.586-0.604,6.905-0.627,9.868
			c-0.034,5.009,0.313,9.283,1.057,13.064c0.812,4.152,1.97,7.647,3.542,10.695c1.678,3.254,3.679,5.969,5.947,8.062
			c2.42,2.234,5.09,3.891,7.937,4.923c2.271,0.803,4.568,1.217,6.817,1.217c0.737,0,1.458-0.043,1.934-0.104
			c6.931-0.728,12.543-4.784,15.07-10.857c0.935-2.245,1.513-4.789,1.722-7.553l0.312-4.133l3.461,2.288
			c0.756,0.499,1.533,0.975,2.354,1.397c6.562,3.377,15.256,3.892,22.411,0.856c0.702-0.295,1.382-0.613,2.044-0.951l1.131-0.571
			l1.118,0.596c0.568,0.305,1.155,0.589,1.757,0.855c3.134,1.379,6.728,2.078,10.672,2.078c5.629,0,10.613-1.493,14.807-4.442
			c2.125-1.492,4.055-3.353,5.746-5.531l1.769-2.277l1.951,2.126c2.291,2.501,5.151,4.167,8.281,4.804
			c0.67,0.134,1.612,0.238,2.401,0.267l1.484,0.062l0.628,1.351c1.369,2.963,3.109,5.563,5.169,7.733
			c3.544,3.732,8.057,6.21,13.064,7.172c4.74,0.889,9.863,0.308,15.147-1.784c4.413-1.803,7.728-4.932,9.316-8.804L246.384,268.381z
			"/>
	</g>
	<g>
		<path fill="#FFFFFF" d="M411.21,126.062L411.21,126.062L411.21,126.062C411.22,126.062,411.195,126.062,411.21,126.062z"/>
		<path fill="#FFFFFF" d="M396.02,140.578c0.424,2.558,1.432,4.822,2.716,6.625c1.308,1.792,2.849,3.139,4.356,4.075
			c1.508,0.952,2.986,1.479,4.209,1.808c0.304,0.075,0.594,0.147,0.87,0.214c0.28,0.062,0.547,0.085,0.79,0.128
			c0.499,0.076,0.918,0.134,1.246,0.134c0.66,0.028,1.013,0.047,1.013,0.047h0.019c0,0,0.362-0.019,1.041-0.047
			c0.338,0,0.757-0.058,1.242-0.134c0.242-0.043,0.508-0.065,0.785-0.128c0.275-0.066,0.565-0.139,0.875-0.214
			c1.221-0.328,2.69-0.855,4.203-1.808c1.508-0.932,3.049-2.283,4.356-4.075c0.623-0.909,1.237-1.907,1.679-3.03
			c0.119-0.274,0.233-0.561,0.348-0.841c0.09-0.295,0.182-0.595,0.271-0.89c0.204-0.585,0.29-1.251,0.423-1.903
			c0.386-2.463,0.166-5.369-0.903-8.036c-0.528-1.346-1.295-2.616-2.193-3.814c-0.932-1.179-2.068-2.206-3.314-3.11
			c-1.265-0.885-2.682-1.56-4.171-2.055c-0.752-0.205-1.503-0.423-2.335-0.519c-0.87-0.156-1.493-0.137-2.221-0.19
			c-0.176-0.004-0.071,0-0.118,0h-0.039l-0.071,0.006l-0.147,0.009l-0.295,0.01l-0.589,0.038c-0.396,0.01-0.781,0.071-1.171,0.134
			c-0.779,0.09-1.541,0.304-2.292,0.513c-1.488,0.49-2.906,1.166-4.171,2.05c-1.246,0.899-2.383,1.937-3.31,3.11
			c-0.904,1.194-1.67,2.468-2.197,3.819c-0.519,1.355-0.88,2.692-0.999,4.118c-0.104,0.738-0.066,1.332-0.081,1.959
			c-0.015,0.41,0.052,0.685,0.071,1.028C395.953,139.931,395.963,140.259,396.02,140.578z M397.846,138.685
			c0.062-0.612,0.091-1.289,0.238-1.807c0.181-1.107,0.633-2.282,1.141-3.361c0.524-1.091,1.246-2.089,2.055-3.021
			c0.828-0.913,1.784-1.712,2.836-2.393c1.06-0.651,2.215-1.146,3.409-1.518c0.608-0.142,1.213-0.312,1.836-0.375
			c0.313-0.052,0.623-0.105,0.937-0.105l0.476-0.023l0.233-0.009h0.119l0.056-0.005l0.029-0.006c-0.004,0,0,0-0.053,0
			c0.02,0,0.034,0,0.053,0l0,0l0,0c0.675,0.039,1.44,0.039,1.955,0.153c0.565,0.058,1.185,0.229,1.793,0.37
			c1.188,0.371,2.349,0.866,3.409,1.522c1.046,0.68,2.008,1.479,2.835,2.388c0.808,0.932,1.531,1.93,2.059,3.024
			c0.51,1.095,0.952,2.222,1.142,3.386c0.147,0.581,0.171,1.166,0.232,1.746l0.011,0.108l0.009,0.058l0.006,0.02v0.218l-0.006,0.457
			c-0.009,0.305,0.01,0.638-0.02,0.908c-0.075,0.543-0.075,1.08-0.218,1.631c-0.053,0.276-0.114,0.543-0.162,0.813
			c-0.081,0.263-0.166,0.523-0.243,0.785c-0.317,1.037-0.807,1.974-1.312,2.853c-1.056,1.746-2.455,3.059-3.819,4.015
			c-1.365,0.979-2.754,1.502-3.899,1.845c-0.29,0.077-0.57,0.153-0.828,0.22c-0.261,0.061-0.513,0.086-0.741,0.123
			c-0.467,0.081-0.861,0.139-1.184,0.143c-0.634,0.033-0.972,0.058-0.98,0.058c-0.014,0-0.357-0.024-1.008-0.058
			c-0.338-0.004-0.729-0.062-1.181-0.143c-0.228-0.037-0.475-0.066-0.736-0.123c-0.257-0.066-0.533-0.143-0.827-0.22
			c-1.146-0.343-2.535-0.865-3.899-1.845c-1.365-0.956-2.764-2.269-3.815-4.015c-1.061-1.729-1.788-3.851-1.939-6.124
			c-0.028-0.286-0.01-0.576-0.015-0.866C397.832,139.246,397.803,138.904,397.846,138.685z"/>
		<path fill="#FFFFFF" d="M272.679,78.153l0.066,0.509l0.133,1.014l0.134,1.008c0.047,0.339,0.066,0.638,0.166,1.052
			c0.167,0.765,0.333,1.535,0.494,2.291c0.087,0.371,0.153,0.757,0.267,1.108c0.114,0.353,0.229,0.695,0.337,1.037
			c0.229,0.681,0.457,1.354,0.686,2.026c0.267,0.656,0.561,1.294,0.847,1.921c1.107,2.539,2.592,4.761,4.08,6.786
			c3.11,3.985,6.744,6.862,10.206,8.821c3.463,1.988,6.797,2.988,9.521,3.587c0.686,0.133,1.336,0.256,1.945,0.376
			c0.613,0.1,1.198,0.124,1.736,0.186c0.537,0.047,1.031,0.094,1.487,0.143c0.457,0.038,0.876,0.005,1.242,0.009
			c1.479-0.009,2.269-0.019,2.269-0.019h0.019c0,0,0.78,0.01,2.236,0.019c0.37-0.009,0.774,0.029,1.227-0.009
			c0.461-0.049,0.96-0.096,1.503-0.143c0.531-0.062,1.131-0.09,1.745-0.19c0.613-0.115,1.26-0.242,1.95-0.371
			c2.719-0.599,6.054-1.593,9.521-3.576c3.467-1.955,7.096-4.822,10.225-8.788c3.092-3.978,5.607-9.094,6.744-14.986
			c0.171-0.731,0.209-1.488,0.313-2.235c0.043-0.385,0.091-0.765,0.138-1.142l0.067-0.574l0.01-0.724
			c0-1.417,0.133-2.636-0.086-4.442c-0.086-0.826-0.129-1.721-0.271-2.521c-0.156-0.798-0.314-1.597-0.471-2.407
			c-0.128-0.817-0.405-1.592-0.638-2.396l-0.371-1.198l-0.189-0.6l-0.242-0.58c-1.18-3.163-2.949-6.154-5.037-8.961
			c-0.556-0.674-1.127-1.34-1.702-2.016l-0.433-0.499l-0.476-0.462l-0.951-0.932l-0.966-0.933c-0.319-0.31-0.685-0.565-1.027-0.851
			c-0.704-0.557-1.402-1.128-2.135-1.651c-2.959-2.073-6.265-3.685-9.75-4.851l-2.668-0.723l-0.665-0.171
			c-0.229-0.047-0.457-0.081-0.686-0.123l-1.365-0.215c-1.821-0.356-3.666-0.366-5.507-0.476c0.238-0.004-0.423,0.005-0.381,0.005
			l-0.076,0.005l-0.143,0.004l-0.295,0.02l-0.58,0.034l-1.165,0.062l-0.585,0.037c-0.194,0.01-0.365,0.01-0.638,0.057l-1.479,0.209
			l-1.475,0.23l-0.736,0.123c-0.233,0.047-0.453,0.114-0.676,0.171l-2.668,0.722c-3.491,1.156-6.811,2.751-9.773,4.833
			c-0.736,0.509-1.427,1.089-2.135,1.642c-0.348,0.284-0.704,0.555-1.037,0.851l-0.96,0.933l-0.951,0.932
			c-0.324,0.304-0.634,0.618-0.914,0.961c-0.575,0.675-1.146,1.345-1.698,2.021c-2.087,2.81-3.866,5.791-5.045,8.954
			c-1.176,3.158-1.959,6.393-2.174,9.578c-0.199,1.589-0.114,3.168-0.109,4.709L272.679,78.153z M280.54,80.299l0.028-1.014
			l0.028-1.027l0.015-0.509c0-0.066,0.014,0.339,0.014,0.138l0.005-0.057l0.015-0.109l0.033-0.224
			c0.172-1.193,0.252-2.401,0.595-3.581c0.466-2.393,1.464-4.675,2.559-6.877c0.305-0.537,0.608-1.074,0.917-1.621
			c0.31-0.532,0.714-1.019,1.052-1.537l0.523-0.774l0.608-0.713c0.409-0.472,0.779-0.976,1.218-1.423
			c1.707-1.84,3.709-3.4,5.812-4.771l1.645-0.932c0.267-0.171,0.553-0.295,0.848-0.419l0.86-0.38l0.855-0.398
			c0.29-0.119,0.6-0.205,0.895-0.314c0.6-0.19,1.18-0.438,1.788-0.6c0.618-0.138,1.227-0.276,1.841-0.438
			c0.147-0.038,0.31-0.085,0.452-0.114l0.414-0.047l0.826-0.129l0.828-0.143c0.113-0.034,0.333-0.034,0.519-0.043l0.589-0.023
			l2.017-0.101c2.54,0.048,5.047,0.399,7.485,1.062c0.604,0.175,1.195,0.403,1.789,0.604c0.3,0.109,0.609,0.186,0.89,0.322
			l0.86,0.396l0.865,0.385l0.434,0.185l0.408,0.237l1.65,0.929c2.106,1.379,4.095,2.938,5.812,4.775
			c0.433,0.456,0.813,0.954,1.223,1.426c0.2,0.238,0.413,0.472,0.604,0.718l0.523,0.775c0.337,0.519,0.747,0.999,1.051,1.536
			c0.31,0.547,0.618,1.084,0.918,1.622l0.233,0.399l0.186,0.423l0.38,0.843c0.247,0.561,0.552,1.112,0.719,1.702
			c0.199,0.574,0.403,1.155,0.6,1.73c0.194,0.576,0.275,1.094,0.427,1.65c0.333,0.961,0.434,2.526,0.609,3.848l0.033,0.257
			l0.015,0.133c0-0.065,0.009,0.248,0-0.143l0.004,0.058l0.015,0.446l0.033,0.899c0.006,0.594,0.085,1.193,0.038,1.782
			c-0.156,4.742-1.493,9.255-3.566,13.036c-2.098,3.791-4.927,6.777-7.776,9.003c-2.839,2.265-5.806,3.587-8.284,4.479
			c-0.633,0.209-1.231,0.41-1.793,0.591c-0.57,0.166-1.108,0.252-1.612,0.371c-0.505,0.108-0.97,0.214-1.394,0.304
			c-0.433,0.091-0.851,0.104-1.207,0.153c-1.433,0.155-2.198,0.241-2.217,0.247c-0.028-0.006-0.78-0.092-2.198-0.247
			c-0.352-0.049-0.756-0.062-1.184-0.153c-0.433-0.095-0.903-0.195-1.412-0.304c-0.505-0.119-1.056-0.209-1.621-0.371
			c-0.562-0.19-1.161-0.386-1.794-0.591c-2.482-0.898-5.444-2.225-8.284-4.498c-2.84-2.222-5.664-5.218-7.737-9.017
			c-0.984-1.922-1.923-3.952-2.488-6.164c-0.143-0.552-0.31-1.104-0.442-1.654c-0.09-0.571-0.185-1.142-0.279-1.722l-0.143-0.856
			c-0.043-0.285-0.039-0.557-0.058-0.837c-0.038-0.543-0.071-1.094-0.109-1.646C280.506,81.002,280.534,80.631,280.54,80.299z"/>
		<path fill="#FFFFFF" d="M189.965,142.442c0.087,0.295,0.182,0.595,0.272,0.89c0.113,0.28,0.228,0.566,0.347,0.841
			c0.443,1.123,1.052,2.121,1.675,3.03c1.312,1.792,2.853,3.144,4.365,4.075c1.508,0.952,2.978,1.479,4.199,1.808
			c0.309,0.075,0.604,0.147,0.875,0.214c0.276,0.062,0.538,0.085,0.784,0.128c0.486,0.076,0.899,0.134,1.242,0.134
			c0.674,0.028,1.036,0.047,1.036,0.047h0.02c0,0,0.356-0.019,1.018-0.047c0.327,0,0.747-0.058,1.236-0.134
			c0.247-0.043,0.519-0.065,0.794-0.128c0.276-0.066,0.571-0.139,0.875-0.214c1.223-0.328,2.696-0.855,4.205-1.808
			c1.507-0.937,3.053-2.283,4.36-4.075c1.284-1.803,2.287-4.067,2.711-6.625c0.066-0.319,0.071-0.647,0.109-0.97
			c0.02-0.344,0.086-0.618,0.066-1.028c-0.009-0.627,0.023-1.221-0.081-1.959c-0.113-1.426-0.476-2.763-0.994-4.118
			c-0.527-1.352-1.293-2.625-2.196-3.819c-0.933-1.174-2.063-2.211-3.31-3.11c-1.266-0.884-2.688-1.56-4.172-2.05
			c-0.756-0.209-1.513-0.423-2.296-0.513c-0.386-0.062-0.776-0.124-1.166-0.134l-0.59-0.038l-0.295-0.01l-0.147-0.009l-0.076-0.006
			h-0.033c-0.052,0,0.057-0.004-0.119,0c-0.728,0.054-1.351,0.034-2.221,0.19c-0.837,0.096-1.579,0.313-2.339,0.519
			c-1.484,0.495-2.906,1.17-4.167,2.055c-1.251,0.904-2.383,1.932-3.314,3.11c-0.898,1.198-1.665,2.469-2.192,3.814
			c-1.07,2.667-1.289,5.573-0.904,8.036C189.676,141.191,189.756,141.857,189.965,142.442z M191.345,139.056v-0.218l0.005-0.02
			l0.005-0.058l0.01-0.108c0.07-0.58,0.09-1.165,0.232-1.746c0.194-1.164,0.643-2.297,1.146-3.386
			c0.527-1.095,1.251-2.093,2.055-3.024c0.832-0.913,1.793-1.708,2.834-2.388c1.065-0.656,2.222-1.151,3.414-1.522
			c0.609-0.142,1.223-0.312,1.794-0.37c0.504-0.114,1.274-0.114,1.94-0.153c0.004,0,0.015,0,0.009,0c0.02,0,0.038,0,0.058,0
			c-0.058,0-0.052,0-0.058,0l0.029,0.006l0.062,0.005h0.119l0.238,0.009l0.465,0.029c0.319-0.006,0.628,0.048,0.937,0.1
			c0.628,0.062,1.228,0.233,1.842,0.375c1.193,0.371,2.35,0.866,3.409,1.518c1.047,0.681,2.002,1.479,2.835,2.393
			c0.809,0.932,1.531,1.93,2.059,3.021c0.504,1.079,0.952,2.254,1.138,3.361c0.142,0.518,0.171,1.194,0.237,1.807
			c0.043,0.22,0.01,0.562,0.019,0.828c-0.009,0.29,0.015,0.58-0.015,0.866c-0.156,2.273-0.879,4.395-1.939,6.124
			c-1.051,1.746-2.454,3.059-3.814,4.015c-1.36,0.979-2.754,1.502-3.904,1.845c-0.29,0.077-0.565,0.153-0.823,0.22
			c-0.261,0.057-0.509,0.086-0.736,0.123c-0.457,0.081-0.847,0.139-1.18,0.143c-0.656,0.033-0.999,0.058-1.008,0.058
			c-0.015,0-0.348-0.024-0.985-0.058c-0.323-0.004-0.718-0.062-1.179-0.143c-0.233-0.037-0.48-0.062-0.742-0.123
			c-0.262-0.066-0.538-0.143-0.828-0.22c-1.15-0.343-2.539-0.865-3.898-1.845c-1.361-0.956-2.764-2.269-3.824-4.015
			c-0.5-0.879-0.99-1.82-1.308-2.853c-0.081-0.262-0.158-0.522-0.243-0.785c-0.058-0.271-0.109-0.537-0.161-0.813
			c-0.143-0.551-0.143-1.088-0.219-1.631c-0.034-0.271-0.015-0.604-0.024-0.908V139.056z"/>
		<path fill="#FFFFFF" d="M224.303,116.276l0.043,0.347l0.086,0.685c0.065,0.472,0.085,0.88,0.194,1.384
			c0.224,0.99,0.375,1.998,0.713,2.863c0.147,0.447,0.296,0.895,0.443,1.332c0.18,0.418,0.365,0.837,0.551,1.256
			c0.704,1.664,1.679,3.119,2.631,4.461c1.997,2.645,4.341,4.574,6.581,5.958c2.245,1.394,4.428,2.155,6.23,2.64
			c0.457,0.109,0.889,0.215,1.294,0.31c0.409,0.09,0.798,0.129,1.16,0.186c0.361,0.058,0.694,0.099,0.993,0.147
			c0.31,0.043,0.591,0.033,0.838,0.052c1.003,0.043,1.536,0.067,1.536,0.067h0.02c0,0,0.527-0.024,1.512-0.067
			c0.252-0.019,0.519-0.009,0.827-0.052c0.31-0.043,0.646-0.09,1.003-0.147c0.362-0.057,0.762-0.096,1.171-0.186
			c0.404-0.095,0.837-0.2,1.294-0.31c1.802-0.484,3.99-1.246,6.233-2.64c2.236-1.379,4.586-3.313,6.583-5.953
			c1.974-2.64,3.6-5.988,4.332-9.84c0.104-0.476,0.134-0.967,0.2-1.461l0.086-0.741l0.042-0.375l0.005-0.448
			c0.01-0.945,0.096-1.812-0.043-2.953c-0.057-0.538-0.075-1.104-0.171-1.622c-0.1-0.522-0.2-1.051-0.299-1.578
			c-0.081-0.532-0.263-1.047-0.414-1.569c-0.167-0.515-0.286-1.056-0.514-1.56c-0.756-2.079-1.908-4.038-3.268-5.893
			c-1.408-1.817-3.101-3.459-5.018-4.856c-1.935-1.379-4.109-2.449-6.405-3.22c-2.307-0.752-4.741-1.065-7.172-1.137l-1.746,0.096
			l-0.395,0.023c-0.124,0.006-0.262,0.014-0.433,0.042l-0.965,0.144l-0.962,0.152l-0.48,0.075l-0.438,0.119l-1.749,0.481
			c-2.297,0.774-4.472,1.845-6.411,3.22c-1.912,1.397-3.61,3.038-5.018,4.854c-1.354,1.854-2.507,3.814-3.263,5.898
			c-0.751,2.067-1.27,4.18-1.397,6.267c-0.129,1.037-0.062,2.074-0.058,3.082L224.303,116.276z M227.97,117.128l0.013-0.69
			l0.006-0.347c0.005,0.028-0.006-0.129,0.009,0.052V116.1l0.015-0.081l0.02-0.151c0.124-0.847,0.18-1.703,0.419-2.531
			c0.337-1.688,1.036-3.305,1.821-4.854c0.218-0.376,0.438-0.756,0.66-1.138c0.22-0.379,0.505-0.717,0.747-1.084l0.376-0.541
			l0.433-0.504c0.295-0.329,0.557-0.686,0.87-1c1.213-1.283,2.635-2.373,4.123-3.328l1.161-0.647
			c0.38-0.238,0.812-0.371,1.207-0.561l0.604-0.276c0.205-0.086,0.418-0.143,0.627-0.219c0.425-0.138,0.839-0.305,1.266-0.418
			c0.866-0.195,1.745-0.438,2.512-0.515l0.594-0.1c0.087-0.02,0.215-0.028,0.348-0.033l0.398-0.015l1.404-0.065
			c1.778,0.023,3.543,0.271,5.26,0.728c0.428,0.113,0.837,0.28,1.266,0.418c0.203,0.076,0.418,0.133,0.623,0.219l0.604,0.276
			c0.399,0.189,0.826,0.322,1.208,0.561l1.159,0.647c1.494,0.961,2.906,2.045,4.129,3.334c0.31,0.317,0.57,0.665,0.866,0.998
			l0.432,0.504l0.376,0.537c0.242,0.367,0.528,0.709,0.752,1.084c0.219,0.382,0.438,0.762,0.655,1.142
			c0.243,0.367,0.376,0.781,0.566,1.176c0.176,0.395,0.395,0.783,0.514,1.193c0.143,0.414,0.285,0.828,0.423,1.231
			c0.143,0.409,0.2,0.795,0.31,1.194c0.238,0.728,0.309,1.75,0.428,2.652l0.024,0.173l0.009,0.086l0.006,0.047
			c0-0.058,0-0.047,0-0.058l0.009,0.319l0.015,0.632c0,0.419,0.047,0.847,0.015,1.261c-0.139,3.343-1.122,6.511-2.646,9.117
			c-1.536,2.605-3.552,4.637-5.587,6.087c-2.017,1.483-4.095,2.293-5.812,2.819c-0.433,0.119-0.846,0.234-1.236,0.349
			c-0.39,0.085-0.761,0.123-1.103,0.185c-0.348,0.058-0.662,0.109-0.951,0.157c-0.295,0.048-0.576,0.044-0.818,0.062
			c-0.979,0.058-1.493,0.086-1.504,0.086c-0.014,0-0.519-0.028-1.474-0.081c-0.247-0.022-0.518-0.019-0.808-0.066
			c-0.301-0.048-0.619-0.095-0.967-0.152c-0.342-0.066-0.717-0.104-1.112-0.189c-0.39-0.114-0.799-0.229-1.236-0.349
			c-1.717-0.531-3.79-1.336-5.812-2.819c-2.031-1.45-4.057-3.481-5.584-6.087c-0.732-1.322-1.406-2.74-1.845-4.281
			c-0.109-0.39-0.214-0.774-0.328-1.16c-0.066-0.403-0.143-0.809-0.209-1.208c-0.19-0.817-0.172-1.598-0.252-2.396
			C227.927,118.074,227.97,117.57,227.97,117.128z"/>
		<path fill="#FFFFFF" d="M345.1,116.191l0.043,0.375l0.086,0.741c0.071,0.494,0.095,0.985,0.204,1.461
			c0.732,3.852,2.358,7.2,4.327,9.84c2.002,2.64,4.352,4.574,6.588,5.953c2.244,1.394,4.428,2.155,6.234,2.64
			c0.457,0.109,0.885,0.215,1.294,0.31c0.408,0.09,0.803,0.129,1.165,0.186c0.361,0.058,0.698,0.104,1.008,0.147
			c0.305,0.043,0.58,0.033,0.823,0.052c0.988,0.043,1.513,0.067,1.513,0.067h0.018c0,0,0.538-0.024,1.537-0.067
			c0.252-0.019,0.532-0.009,0.837-0.052c0.304-0.049,0.637-0.09,0.999-0.147c0.361-0.057,0.751-0.096,1.16-0.186
			c0.404-0.095,0.837-0.2,1.288-0.31c1.808-0.484,3.99-1.246,6.235-2.64c2.24-1.384,4.585-3.313,6.587-5.958
			c0.946-1.342,1.916-2.797,2.625-4.461c0.181-0.419,0.366-0.838,0.552-1.256c0.144-0.438,0.295-0.885,0.442-1.332
			c0.333-0.865,0.485-1.873,0.713-2.863c0.11-0.504,0.124-0.912,0.195-1.384l0.086-0.685l0.043-0.347l0.009-0.467
			c0.01-1.008,0.076-2.045-0.058-3.082c-0.122-2.087-0.641-4.199-1.392-6.267c-0.757-2.084-1.908-4.044-3.269-5.898
			c-1.402-1.816-3.101-3.457-5.018-4.854c-1.935-1.375-4.108-2.445-6.405-3.22l-1.75-0.481l-0.442-0.119l-0.48-0.075l-0.961-0.152
			l-0.966-0.144c-0.17-0.028-0.304-0.036-0.433-0.042l-0.39-0.023l-1.75-0.096c-2.426,0.071-4.861,0.385-7.167,1.137
			c-2.297,0.771-4.471,1.841-6.411,3.22c-1.912,1.397-3.609,3.039-5.018,4.856c-1.351,1.854-2.501,3.813-3.263,5.893
			c-0.232,0.504-0.346,1.045-0.519,1.56c-0.146,0.522-0.327,1.037-0.408,1.569c-0.1,0.527-0.2,1.056-0.3,1.578
			c-0.095,0.519-0.118,1.084-0.171,1.622c-0.143,1.142-0.058,2.008-0.053,2.953L345.1,116.191z M348.766,117.132l0.02-0.632
			l0.01-0.319v0.011l0.014-0.086l0.02-0.173c0.124-0.902,0.195-1.925,0.428-2.652c0.109-0.399,0.172-0.785,0.31-1.194
			c0.138-0.403,0.28-0.817,0.423-1.231c0.119-0.41,0.344-0.799,0.514-1.193c0.195-0.395,0.328-0.809,0.571-1.176
			c0.213-0.38,0.437-0.76,0.656-1.142c0.219-0.375,0.509-0.717,0.747-1.084l0.375-0.537l0.434-0.504
			c0.295-0.333,0.561-0.681,0.869-1.004c1.218-1.283,2.635-2.367,4.124-3.328l1.165-0.647c0.376-0.238,0.809-0.371,1.203-0.561
			l0.604-0.276c0.204-0.086,0.423-0.143,0.632-0.219c0.419-0.138,0.832-0.305,1.261-0.418c1.716-0.457,3.477-0.704,5.255-0.728
			l1.408,0.065l0.395,0.015c0.138,0.005,0.266,0.014,0.352,0.033l0.594,0.1c0.771,0.077,1.646,0.319,2.512,0.515
			c0.428,0.113,0.842,0.28,1.266,0.418c0.204,0.076,0.422,0.133,0.623,0.219l0.604,0.276c0.399,0.189,0.832,0.322,1.208,0.561
			l1.165,0.647c1.489,0.955,2.906,2.045,4.123,3.328c0.309,0.314,0.575,0.671,0.87,1l0.433,0.504l0.376,0.541
			c0.243,0.367,0.523,0.705,0.747,1.084c0.219,0.382,0.438,0.762,0.656,1.138c0.789,1.55,1.488,3.167,1.821,4.854
			c0.243,0.828,0.3,1.685,0.423,2.531l0.02,0.151l0.015,0.081l0.004,0.043c0-0.033,0-0.02,0-0.028l0.011,0.323l0.013,0.69
			c0,0.442,0.044,0.946,0.006,1.336c-0.086,0.799-0.062,1.579-0.252,2.396c-0.067,0.399-0.138,0.805-0.21,1.208
			c-0.114,0.386-0.219,0.771-0.332,1.16c-0.434,1.541-1.108,2.959-1.841,4.281c-1.532,2.605-3.553,4.637-5.583,6.087
			c-2.021,1.483-4.101,2.288-5.812,2.819c-0.438,0.119-0.851,0.234-1.235,0.349c-0.396,0.085-0.771,0.127-1.113,0.189
			c-0.348,0.058-0.671,0.104-0.966,0.152c-0.294,0.048-0.566,0.044-0.804,0.066c-0.96,0.053-1.464,0.081-1.479,0.081
			s-0.528-0.028-1.498-0.086c-0.248-0.018-0.533-0.014-0.818-0.062c-0.295-0.048-0.614-0.1-0.956-0.157
			c-0.343-0.062-0.714-0.1-1.103-0.185c-0.391-0.114-0.805-0.229-1.237-0.349c-1.722-0.526-3.795-1.336-5.817-2.819
			c-2.029-1.445-4.051-3.481-5.582-6.087c-1.526-2.606-2.507-5.774-2.649-9.117C348.719,117.979,348.766,117.551,348.766,117.132z"
			/>
		<path fill="#FFFFFF" d="M431.369,172.49c-0.965-1.975-2.172-3.834-3.562-5.546c-1.394-1.727-2.986-3.286-4.746-4.656
			c-3.51-2.753-7.694-4.712-12.151-5.636c-0.551-0.133-1.117-0.203-1.678-0.304c-0.562-0.091-1.185-0.143-1.779-0.209
			c-0.956-0.081-2.24-0.152-3.392-0.096c-2.269,0.077-4.446,0.495-6.468,0.979c-3.248-4.08-7.3-7.571-11.903-10.215
			c-2.321-1.332-4.779-2.445-7.334-3.32c-2.558-0.869-5.188-1.502-7.903-1.878l-2.117-0.232l-1.826-0.134l-1.155-0.028
			c-0.352-0.005-0.699-0.011-1.046,0c-0.699,0.019-1.398,0.038-2.088,0.09c-1.688,0.108-3.329,0.375-4.956,0.681
			c-0.751-1.104-1.536-2.197-2.358-3.253c-1.793-2.245-3.71-4.399-5.807-6.383c-2.107-1.96-4.333-3.804-6.687-5.469
			c-4.723-3.34-9.964-5.944-15.462-7.786c-2.758-0.898-5.578-1.641-8.436-2.106c-2.863-0.489-5.755-0.805-8.657-0.86l-1.084-0.034
			l-0.271-0.004l-0.138-0.005h-0.067h-0.194l-0.5,0.02l-1.988,0.057c-0.308,0-0.713,0.037-1.084,0.066l-1.131,0.086
			c-0.762,0.057-1.513,0.118-2.222,0.223c-2.881,0.31-5.729,0.928-8.536,1.65c-2.802,0.762-5.531,1.77-8.194,2.911
			c-2.645,1.179-5.212,2.534-7.662,4.062c-2.435,1.564-4.761,3.281-6.967,5.145c-2.178,1.884-4.228,3.915-6.116,6.079
			c-1.692,1.979-3.253,4.062-4.694,6.211c-1.593-0.338-3.214-0.628-4.869-0.795c-1.194-0.128-2.406-0.175-3.615-0.194l-0.912,0.02
			l-0.452,0.009l-0.343,0.004l-0.199,0.015l-1.583,0.115c-2.465,0.214-4.771,0.618-7.044,1.198
			c-2.273,0.569-4.485,1.369-6.615,2.312c-4.262,1.883-8.166,4.484-11.523,7.618c-1.365,1.256-2.607,2.63-3.776,4.052
			c-1.593-0.365-3.253-0.699-5.003-0.837c-0.975-0.086-1.969-0.095-2.958-0.075l-1.356,0.086l-1.487,0.155
			c-1.917,0.257-3.762,0.69-5.564,1.294c-1.798,0.609-3.534,1.385-5.171,2.312c-3.271,1.858-6.152,4.327-8.474,7.224
			c-2.321,2.887-4.071,6.201-5.132,9.706c-0.532,1.75-0.894,3.548-1.08,5.351c-0.094,0.903-0.137,1.816-0.147,2.721l0.02,1.351
			l0.062,1.26l0.494,10.105l0.984,20.213v0.552l0.114-0.053l1.573-20.712l0.495-10.105l0.062-1.26l0.076-1.18
			c0.081-0.779,0.181-1.551,0.323-2.316c0.289-1.526,0.718-3.021,1.288-4.451c1.137-2.867,2.821-5.483,4.914-7.681
			c2.087-2.207,4.579-3.99,7.28-5.241c1.352-0.623,2.754-1.112,4.189-1.465c1.428-0.352,2.897-0.561,4.333-0.633l1.032-0.023
			l1.17,0.019c0.671,0.048,1.331,0.105,2.007,0.229c-0.324,0.805-0.651,1.607-0.933,2.426c-0.418,1.208-0.771,2.436-1.099,3.671
			c-0.31,1.237-0.589,2.474-0.803,3.724c-0.22,1.251-0.4,2.507-0.51,3.763c-0.133,1.261-0.189,2.521-0.218,3.78
			c-0.015,0.633,0.004,1.289,0.004,1.927l0.081,1.836l0.219,3.562l0.28,4.447l0.504,10.8c0.771-1.022,1.475-2.106,2.312-3.067
			l1.113-12.18l0.223-3.562l0.147-1.736c0.072-0.547,0.124-1.08,0.21-1.631c0.172-1.113,0.366-2.217,0.618-3.306
			c0.242-1.093,0.542-2.168,0.87-3.229c0.333-1.065,0.719-2.112,1.118-3.144c0.423-1.023,0.86-2.041,1.355-3.025
			c0.484-0.994,1.007-1.964,1.569-2.915c0.552-0.951,1.155-1.874,1.764-2.778l0.034-0.061c1.56-1.803,3.267-3.458,5.145-4.895
			c3.064-2.368,6.497-4.204,10.106-5.411c1.799-0.601,3.643-1.085,5.508-1.36c1.859-0.3,3.762-0.438,5.526-0.433l1.579,0.032
			l1.274,0.096c0.898,0.104,1.798,0.224,2.696,0.404c0.057,0.015,0.124,0.033,0.186,0.048c-0.366,1.061-0.732,2.115-1.052,3.187
			c-0.437,1.507-0.821,3.029-1.164,4.56c-0.329,1.526-0.633,3.062-0.853,4.614c-0.242,1.54-0.398,3.096-0.526,4.651
			c-0.124,1.554-0.173,3.109-0.187,4.669c0.014,0.781,0.005,1.617,0.043,2.354l0.052,1.108l0.024,0.6l0.038,0.551l0.294,4.404
			l0.248,2.882c1.873,0.152,3.71,0.39,5.479,0.785c0.037-0.671,0.09-1.337,0.132-2.013l0.22-3.971
			c0.075-1.312,0.128-2.687,0.247-3.899c0.171-2.487,0.556-4.961,1.08-7.377c0.508-2.43,1.246-4.793,2.063-7.104
			c0.847-2.312,1.897-4.538,3.011-6.71c1.159-2.164,2.478-4.219,3.895-6.197c1.432-1.97,3.001-3.828,4.67-5.593
			c1.698-1.731,3.506-3.349,5.379-4.869c1.907-1.49,3.9-2.85,5.974-4.076c2.093-1.188,4.232-2.287,6.454-3.211
			c2.226-0.895,4.494-1.674,6.824-2.263c2.32-0.572,4.675-1.075,7.058-1.304c0.608-0.09,1.169-0.129,1.736-0.166l0.851-0.062
			c0.291-0.02,0.543-0.053,0.895-0.053l1.987-0.043l0.442-0.009h0.038h0.108l0.229,0.009l0.899,0.02
			c4.799,0.066,9.563,0.913,14.145,2.321c2.296,0.685,4.522,1.603,6.705,2.606c2.174,1.031,4.261,2.234,6.292,3.528
			c2.021,1.323,3.938,2.796,5.769,4.375c1.808,1.608,3.533,3.312,5.146,5.127c1.588,1.84,3.033,3.795,4.398,5.815
			c1.322,2.051,2.526,4.182,3.576,6.393c1.009,2.227,1.955,4.499,2.678,6.853c0.194,0.581,0.333,1.185,0.509,1.779
			c0.166,0.59,0.333,1.189,0.456,1.793l0.414,1.808l0.324,1.831c0.123,0.618,0.19,1.207,0.266,1.803
			c0.067,0.612,0.177,1.154,0.214,1.831l0.147,1.982l0.015,0.247l0.014,0.124l0.005,0.062c0,0.01,0-0.009,0-0.019l0.029,0.494
			l0.052,0.994l0.433,7.947c0.214,3.515,1.118,16.502,1.703,24.873c0.433,0.133,0.851,0.284,1.274,0.432
			c0.908-8.346,2.345-21.729,2.558-25.305l0.434-7.947l0.053-0.994l0.028-0.494l0.009-0.581l0.049-1.987
			c0.019-0.651-0.034-1.427-0.049-2.14c-0.023-0.724-0.042-1.455-0.113-2.146c-0.381-5.641-1.679-11.233-3.724-16.564
			c-0.31-0.774-0.671-1.531-1.009-2.302c-0.043-0.129-0.086-0.262-0.129-0.39c0.333-0.067,0.666-0.172,0.999-0.219
			c0.519-0.096,1.037-0.158,1.561-0.219c0.257-0.038,0.518-0.053,0.779-0.076l0.391-0.029l0.19-0.009l0.099-0.009h0.029
			c0.028,0-0.2-0.011-0.09-0.011h0.057l1.83-0.038l1.527,0.034c2.141,0.1,4.317,0.399,6.438,0.907
			c2.121,0.515,4.206,1.229,6.212,2.146c4.014,1.826,7.724,4.445,10.829,7.703c1.417,1.479,2.687,3.097,3.833,4.808
			c2.206,3.815,3.886,7.972,4.851,12.347c0.295,1.385,0.557,2.83,0.704,4.199c0.101,0.643,0.143,1.526,0.205,2.173l0.094,2.274
			l0.377,9.073l0.338,9.84c0.803-1.669,1.702-3.237,2.733-4.684c0.096-0.134,0.205-0.248,0.305-0.376l0.333-4.78l0.376-9.073
			l0.096-2.274c0.023-0.855,0.09-1.487,0.081-2.358c0.032-1.655-0.049-3.215-0.182-4.831c-0.413-4.732-1.564-9.432-3.339-13.906
			c0.224-0.038,0.457-0.101,0.681-0.128c0.852-0.115,1.583-0.139,2.635-0.139c0.403,0.023,0.784,0.01,1.222,0.047
			c0.433,0.038,0.87,0.058,1.299,0.124c3.472,0.419,6.882,1.655,9.873,3.625c1.498,0.975,2.896,2.13,4.146,3.442
			c1.251,1.304,2.373,2.75,3.311,4.314c1.864,3.133,3.058,6.72,3.344,10.443c0.08,0.898,0.09,1.944,0.128,2.934l0.023,0.694
			c0.233,0,0.452-0.032,0.685-0.032c1.022,0,1.97,0.08,2.926,0.156l0.027-0.818c0.028-1.009,0.072-1.969,0.077-3.077
			C434.327,180.778,433.296,176.427,431.369,172.49z"/>
	</g>
	<g>
		<path fill="#FFFFFF" d="M92.082,204.168c3.871-0.909,7.804-1.727,11.799-2.454c3.99-0.723,7.848-1.193,11.565-1.403
			c3.725-0.214,7.229-0.075,10.525,0.409c3.301,0.48,6.216,1.479,8.761,2.991c2.173,1.332,3.671,2.859,4.488,4.586
			c0.818,1.721,1.194,3.414,1.133,5.078c-0.058,1.665-0.438,3.221-1.133,4.676c-0.694,1.449-1.512,2.553-2.448,3.31
			c-0.937,0.756-1.86,1.061-2.768,0.908c-0.909-0.152-1.575-0.984-1.997-2.497c-0.967-3.268-3.039-5.864-6.217-7.804
			c-3.172-1.936-7.424-2.721-12.745-2.358c1.507,0.728,2.539,1.788,3.081,3.176c0.547,1.394,0.756,3.025,0.638,4.898
			c-0.123,1.879-0.485,3.948-1.09,6.216c-0.604,2.269-1.331,4.689-2.177,7.263c-0.847,2.567-1.707,5.245-2.588,8.027
			c-0.875,2.782-1.646,5.564-2.312,8.347c-0.305,1.331-0.608,2.844-0.908,4.536c-0.304,1.698-0.562,3.448-0.771,5.266
			c-0.214,1.812-0.361,3.586-0.457,5.308c-0.09,1.727-0.075,3.31,0.049,4.765c0.241,2.478-0.015,4.627-0.771,6.44
			c-0.757,1.816-2.283,2.843-4.585,3.086c-0.965,0.119-2.041-0.034-3.22-0.452c-1.18-0.428-2.358-1.18-3.539-2.269
			c-1.179-1.089-2.269-2.602-3.267-4.537c-0.999-1.939-1.784-4.37-2.359-7.305c-0.576-2.934-0.846-6.444-0.817-10.524
			c0.033-4.086,0.47-8.851,1.316-14.291c0.785-5.084,1.603-9.331,2.449-12.75c0.848-3.415,1.756-6.245,2.721-8.484
			c-2.843,1.573-5.716,3.162-8.617,4.766c-2.906,1.603-5.854,2.934-8.845,3.99c-2.996,1.061-6.05,1.711-9.165,1.948
			c-3.12,0.243-6.307-0.237-9.574-1.45c-2.782-1.027-4.884-2.478-6.306-4.356c-1.422-1.873-2.33-3.866-2.725-5.987
			c-0.39-2.116-0.361-4.219,0.095-6.306c0.452-2.089,1.146-3.839,2.083-5.26c0.937-1.422,2.026-2.407,3.267-2.949
			c1.242-0.547,2.435-0.333,3.586,0.633c1.755,1.45,3.505,2.63,5.26,3.538c1.755,0.908,3.857,1.498,6.306,1.77
			c2.454,0.271,5.446,0.214,8.984-0.181C82.328,206.084,86.76,205.313,92.082,204.168z"/>
		<path fill="#FFFFFF" d="M177.644,237.192c0.728,2.787,1.014,5.583,0.866,8.394c-0.153,2.815-0.776,5.355-1.86,7.624
			c-1.089,2.268-2.648,4.113-4.676,5.535c-2.025,1.423-4.521,2.131-7.485,2.131c-2.177,0-4.022-0.333-5.535-0.998
			c-1.512-0.666-2.738-1.541-3.676-2.631c-0.938-1.089-1.632-2.297-2.084-3.628c-0.456-1.332-0.741-2.663-0.864-3.995
			c-0.486,1.394-1.166,2.753-2.041,4.085c-0.88,1.331-1.949,2.525-3.22,3.581c-1.27,1.061-2.692,1.922-4.266,2.588
			c-1.574,0.665-3.268,0.998-5.08,0.998c-2.481,0-4.66-0.485-6.534-1.45c-1.878-0.971-3.404-2.283-4.584-3.948
			c-1.18-1.664-2.012-3.628-2.492-5.896c-0.484-2.269-0.604-4.732-0.366-7.396c0.485-6.23,2.136-10.663,4.945-13.292
			c2.816-2.635,6.669-3.738,11.572-3.315c1.63,0.125,2.947,0.395,3.946,0.818c0.999,0.423,1.679,1.089,2.04,1.997
			c0.362,0.903,0.452,2.083,0.271,3.539c-0.181,1.45-0.604,3.267-1.271,5.44c-0.542,1.759-0.679,3.163-0.408,4.224
			c0.275,1.055,0.728,1.645,1.36,1.769c0.638,0.119,1.317-0.275,2.045-1.18c0.723-0.908,1.236-2.449,1.541-4.627
			c0.666-4.356,2.073-7.52,4.219-9.482c2.149-1.965,5.278-2.798,9.392-2.498c3.324,0.305,5.536,1.438,6.626,3.405
			c1.088,1.965,1.325,4.912,0.722,8.847c-0.242,1.573-0.133,2.768,0.319,3.585c0.457,0.813,1.061,1.223,1.816,1.223
			s1.568-0.438,2.449-1.318C176.207,240.444,176.978,239.07,177.644,237.192z"/>
		<path fill="#FFFFFF" d="M230.095,271.311c-2.905,1.15-5.55,1.498-7.942,1.046c-2.388-0.456-4.446-1.589-6.167-3.405
			c-1.727-1.816-3.073-4.28-4.039-7.396c-0.969-3.114-1.449-6.729-1.449-10.843c-1.637,0.604-3.102,1.227-4.404,1.859
			c-1.298,0.638-2.373,1.288-3.22,1.95c-1.332,1.032-2.45,1.455-3.357,1.274c-0.908-0.186-1.589-0.775-2.04-1.77
			c-0.457-0.999-0.666-2.282-0.638-3.856s0.305-3.205,0.817-4.903c0.514-1.693,1.27-3.339,2.269-4.941
			c0.999-1.604,2.222-2.953,3.677-4.037c1.874-1.455,4.927-2.455,9.164-2.997c1.027-4.232,2.431-8.332,4.219-12.294
			c1.783-3.961,4.038-7.485,6.758-10.571c2.726-3.087,5.959-5.564,9.712-7.443c3.747-1.873,8.104-2.811,13.064-2.811
			c4.113,0,7.694,0.804,10.753,2.407c3.053,1.603,5.716,3.718,7.984,6.349c2.269,2.629,4.17,5.674,5.717,9.122
			c1.541,3.447,2.843,7.015,3.899,10.704c1.061,3.691,1.95,7.381,2.678,11.072c0.728,3.69,1.374,7.091,1.95,10.205
			c0.574,3.115,1.15,5.841,1.727,8.166c0.574,2.33,1.255,3.976,2.039,4.946c0.424,0.542,0.923,0.908,1.498,1.089
			s1.132,0.333,1.679,0.452c0.543,0.124,1.056,0.275,1.542,0.456c0.484,0.181,0.846,0.543,1.089,1.089
			c0.36,0.785,0.256,1.736-0.319,2.859c-0.575,1.116-1.479,2.234-2.72,3.356c-1.242,1.118-2.721,2.132-4.447,3.039
			c-1.722,0.909-3.553,1.556-5.488,1.95s-3.904,0.466-5.896,0.229c-1.998-0.243-3.872-0.971-5.627-2.179
			c-1.27-0.907-2.358-2.33-3.267-4.266c-0.909-1.936-1.664-4.204-2.269-6.806c-0.604-2.601-1.104-5.46-1.498-8.574
			c-0.395-3.115-0.771-6.307-1.133-9.574c-0.665,0.062-1.393,0.077-2.177,0.049c-0.79-0.029-1.637-0.105-2.54-0.229
			c-3.448-0.3-7.187-0.391-11.209-0.271c-4.024,0.118-8.09,0.451-12.204,0.998c0.062,4.233,0.485,7.771,1.271,10.615
			c0.783,2.845,1.498,5.184,2.135,7.034c0.633,1.841,0.938,3.277,0.903,4.309C232.56,269.798,231.727,270.644,230.095,271.311z
			 M255.319,236.83c-0.366-3.509-0.817-6.833-1.359-9.982c-0.548-3.144-1.227-5.882-2.046-8.208
			c-0.812-2.33-1.812-4.128-2.991-5.402c-1.179-1.27-2.648-1.812-4.403-1.631c-0.966,0.124-2.131,0.589-3.49,1.407
			c-1.361,0.812-2.74,2.073-4.129,3.768c-1.394,1.692-2.738,3.852-4.038,6.485c-1.302,2.631-2.345,5.821-3.134,9.574
			c3.995,0.242,8.108,0.666,12.342,1.27c4.232,0.604,8.408,1.422,12.521,2.45L255.319,236.83z"/>
		<path fill="#FFFFFF" d="M312.3,237.192c0.728,2.787,1.013,5.583,0.86,8.394c-0.152,2.815-0.771,5.355-1.859,7.624
			c-1.09,2.268-2.649,4.113-4.676,5.535c-2.025,1.423-4.518,2.131-7.485,2.131c-2.234,0-4.233-0.409-5.987-1.227
			c-1.755-0.813-3.268-2.174-4.537-4.081s-2.33-4.413-3.173-7.533c-0.851-3.115-1.455-6.938-1.816-11.475
			c-0.847-10.949,0.119-19.058,2.901-24.317c2.782-5.265,7.41-7.895,13.887-7.895c2.963,0,5.217,0.466,6.758,1.402
			c1.541,0.941,2.568,2.198,3.087,3.767c0.514,1.575,0.633,3.405,0.361,5.488c-0.271,2.088-0.713,4.28-1.316,6.583
			c-0.604,2.297-1.271,4.627-1.993,6.985c-0.729,2.359-1.304,4.628-1.727,6.806c-0.423,2.116-0.438,3.752-0.043,4.898
			c0.391,1.151,0.979,1.817,1.77,1.997c0.784,0.182,1.645-0.151,2.582-0.998C310.829,240.431,311.634,239.07,312.3,237.192z"/>
		<path fill="#FFFFFF" d="M311.752,243.185c0-3.205,0.485-5.902,1.455-8.075c0.966-2.179,2.54-3.724,4.718-4.633
			c-1.15-0.784-2.088-1.783-2.815-2.991c-0.723-1.208-1.18-2.602-1.359-4.176c-0.424-3.686,0.333-6.653,2.269-8.893
			c1.936-2.236,4.808-3.353,8.622-3.353c3.747,0,6.591,1.116,8.526,3.353c1.936,2.239,2.692,5.207,2.269,8.893
			c-0.484,3.572-2.149,6.111-4.989,7.624c1.208,0.728,1.993,1.664,2.359,2.811c0.361,1.15,0.453,2.511,0.271,4.086
			c-0.243,1.573-0.139,2.768,0.318,3.585c0.452,0.813,1.056,1.223,1.812,1.223c0.757,0,1.561-0.438,2.407-1.318
			c0.847-0.875,1.603-2.249,2.269-4.127c0.728,2.787,1.013,5.583,0.861,8.394c-0.153,2.815-0.771,5.355-1.86,7.624
			c-1.089,2.268-2.648,4.113-4.675,5.535c-2.026,1.423-4.522,2.131-7.486,2.131c-2.962,0-5.397-0.499-7.3-1.498
			c-1.906-0.998-3.434-2.311-4.584-3.947c-1.15-1.632-1.95-3.506-2.407-5.627C311.979,247.688,311.752,245.482,311.752,243.185z"/>
		<path fill="#FFFFFF" d="M391.598,237.192c0.728,2.787,1.012,5.583,0.86,8.394c-0.152,2.815-0.771,5.355-1.859,7.624
			c-1.09,2.268-2.645,4.113-4.671,5.535c-2.029,1.423-4.521,2.131-7.49,2.131c-2.174,0-4.052-0.3-5.621-0.908
			c-1.574-0.604-2.891-1.375-3.947-2.312c-1.061-0.937-1.86-1.997-2.406-3.177c-0.542-1.179-0.848-2.373-0.908-3.586
			c-0.062,1.213-0.424,2.421-1.09,3.629c-0.665,1.212-1.555,2.302-2.678,3.267c-1.116,0.971-2.448,1.756-3.99,2.359
			c-1.541,0.608-3.219,0.846-5.036,0.728c-2.296-0.119-4.37-0.652-6.216-1.589c-1.845-0.937-3.386-2.192-4.627-3.767
			c-1.241-1.568-2.145-3.399-2.721-5.488c-0.574-2.087-0.742-4.37-0.499-6.848c0.305-3.024,0.999-5.659,2.087-7.896
			c1.09-2.239,2.374-4.085,3.854-5.535c1.483-1.451,3.072-2.512,4.765-3.176c1.693-0.666,3.329-1,4.898-1
			c1.574,0,2.935,0.166,4.086,0.5c1.146,0.332,2.145,0.77,2.996,1.317c0.847,0.542,1.598,1.165,2.269,1.859
			c0.661,0.694,1.27,1.374,1.812,2.04c1.09-1.936,2.644-3.434,4.675-4.49c2.026-1.061,4.461-1.464,7.305-1.227
			c3.325,0.305,5.531,1.438,6.621,3.405c1.089,1.965,1.332,4.912,0.727,8.847c-0.242,1.573-0.151,2.768,0.271,3.585
			c0.424,0.813,1.013,1.223,1.77,1.223c0.756,0,1.574-0.438,2.448-1.318C390.161,240.444,390.932,239.07,391.598,237.192z
			 M361.926,243.907c0.785,0,1.498-0.319,2.13-0.951c0.638-0.638,0.956-1.65,0.956-3.039c0.058-1.455-0.199-2.554-0.771-3.315
			c-0.574-0.756-1.351-1.131-2.315-1.131c-0.971,0-1.741,0.375-2.312,1.131c-0.575,0.762-0.832,1.86-0.774,3.315
			c0,1.389,0.318,2.401,0.956,3.039C360.428,243.588,361.141,243.907,361.926,243.907z"/>
		<path fill="#FFFFFF" d="M443.316,237.192c0.729,2.787,1.013,5.583,0.861,8.394c-0.152,2.815-0.771,5.355-1.859,7.624
			c-1.09,2.268-2.646,4.113-4.671,5.535c-2.031,1.423-4.522,2.131-7.49,2.131c-3.081,0-5.683-0.785-7.8-2.359
			c-2.121-1.573-3.843-4.232-5.174-7.984c0,1.213-0.3,2.449-0.899,3.719c-0.595,1.27-1.465,2.406-2.611,3.405
			c-1.146,0.999-2.506,1.812-4.075,2.449c-1.574,0.633-3.3,0.889-5.174,0.771c-2.297-0.119-4.356-0.652-6.168-1.589
			c-1.818-0.937-3.345-2.192-4.586-3.767c-1.24-1.568-2.145-3.399-2.72-5.488c-0.575-2.087-0.742-4.37-0.499-6.848
			c0.304-3.024,0.984-5.659,2.04-7.896c1.061-2.239,2.33-4.085,3.813-5.535c1.479-1.451,3.068-2.512,4.761-3.176
			c1.693-0.666,3.329-1,4.904-1c1.992,0,3.657,0.257,4.988,0.771c1.327,0.518,2.478,1.197,3.448,2.044
			c0.118-8.166,1.578-14.215,4.38-18.148c2.802-3.933,7.02-5.896,12.646-5.896c2.963,0,5.217,0.466,6.758,1.402
			c1.541,0.941,2.568,2.198,3.086,3.767c0.515,1.575,0.634,3.405,0.362,5.488c-0.271,2.088-0.713,4.28-1.317,6.583
			c-0.604,2.297-1.27,4.627-1.992,6.985c-0.729,2.359-1.304,4.628-1.727,6.806c-0.424,2.116-0.438,3.752-0.043,4.898
			c0.39,1.151,0.979,1.817,1.77,1.997c0.783,0.182,1.645-0.151,2.582-0.998C441.847,240.431,442.651,239.07,443.316,237.192z
			 M413.692,243.907c0.771,0,1.455-0.319,2.055-0.951c0.595-0.638,0.922-1.65,0.984-3.039c0.057-1.455-0.21-2.554-0.804-3.315
			c-0.599-0.756-1.346-1.131-2.235-1.131c-0.956,0-1.716,0.375-2.283,1.131c-0.565,0.762-0.852,1.86-0.852,3.315
			c0.062,1.389,0.405,2.401,1.033,3.039C412.214,243.588,412.917,243.907,413.692,243.907z"/>
		<path fill="#FFFFFF" d="M461.099,225.397c3.144,0,5.911,0.5,8.303,1.498c2.388,0.999,4.371,2.388,5.945,4.171
			c1.569,1.788,2.706,3.934,3.4,6.444s0.861,5.307,0.499,8.395c-0.542,4.779-2.463,8.47-5.759,11.07
			c-3.301,2.602-7.429,3.9-12.389,3.9c-4.961,0-9.088-1.299-12.385-3.9c-3.295-2.601-5.217-6.291-5.764-11.07
			c-0.361-3.088-0.194-5.884,0.499-8.395c0.694-2.511,1.831-4.656,3.405-6.444c1.569-1.783,3.554-3.172,5.945-4.171
			C455.187,225.897,457.955,225.397,461.099,225.397z M464.185,239.917c0.058-1.455-0.194-2.554-0.771-3.315
			c-0.575-0.756-1.346-1.131-2.315-1.131c-0.966,0-1.741,0.375-2.312,1.131c-0.575,0.762-0.832,1.86-0.77,3.315
			c0,1.389,0.313,2.401,0.95,3.039c0.633,0.632,1.346,0.951,2.131,0.951c0.784,0,1.498-0.319,2.135-0.951
			C463.866,242.318,464.185,241.306,464.185,239.917z"/>
	</g>
	<g>
		<path fill="#FFFFFF" d="M490.351,248.962c-1.441,0-2.703,0.509-3.753,1.517c-1.055,1.021-1.589,2.306-1.589,3.82
			c0,1.475,0.522,2.753,1.552,3.801c1.033,1.051,2.309,1.584,3.79,1.584s2.763-0.531,3.809-1.578
			c1.049-1.048,1.581-2.328,1.581-3.807c0-1.447-0.532-2.712-1.581-3.76C493.114,249.492,491.833,248.962,490.351,248.962z"/>
		<path fill="#FFFFFF" d="M532.332,220.854c-1.383-1.224-2.984-1.844-4.762-1.844c-3.262,0-6.787,1.455-10.478,4.324
			c-3.613,2.81-6.939,6.76-9.888,11.742c-2.974,5.031-4.481,10.012-4.481,14.805c0,2.948,0.926,5.375,2.751,7.211
			c1.829,1.84,4.296,2.772,7.333,2.772c4.516,0,8.523-1.756,11.911-5.218c4.486-4.595,5.092-6.18,5.092-7.124
			c0-1.073-0.686-1.795-1.707-1.795c-0.854,0-1.656,0.608-2.604,1.979c-1.293,1.908-2.958,3.716-4.946,5.37
			c-1.881,1.562-3.589,2.353-5.078,2.353c-1.269,0-2.151-0.437-2.779-1.374c-0.698-1.038-1.052-2.679-1.052-4.875
			c0-3.084,0.772-6.954,2.297-11.505c1.512-4.512,3.446-8.078,5.75-10.601c2.74-3.001,4.473-3.631,5.444-3.631
			c0.312,0,0.547,0.063,0.704,0.182c0.03,0.031,0.309,0.353,0.727,1.976c0.421,1.472,0.873,2.489,1.386,3.114
			c0.421,0.507,1.221,1.111,2.633,1.111c0.973,0,1.87-0.393,2.672-1.173c0.8-0.788,1.205-1.862,1.205-3.194
			C534.462,223.658,533.746,222.109,532.332,220.854z"/>
		<path fill="#FFFFFF" d="M564.829,223.919c-2.434-3.258-5.818-4.909-10.061-4.909c-2.692,0-5.657,0.995-8.813,2.957
			c-3.148,1.959-5.933,5.109-8.274,9.363c-2.349,4.252-3.539,8.713-3.539,13.258c0,3.495,0.973,6.882,2.892,10.066
			c2.014,3.337,5.313,5.029,9.807,5.029c5.899,0,11.034-2.63,15.263-7.816c4.176-5.122,6.293-10.739,6.293-16.696
			C568.396,230.874,567.195,227.089,564.829,223.919z M543.65,253.996c-0.877-1.38-1.303-2.995-1.303-4.938
			c0-4.212,0.953-8.798,2.834-13.631c1.866-4.808,3.768-8.162,5.651-9.97c1.791-1.718,3.398-2.589,4.776-2.589
			c1.653,0,2.847,0.536,3.646,1.635c0.859,1.19,1.295,3.08,1.295,5.616c0,4.001-0.901,8.303-2.679,12.786
			c-1.769,4.465-3.716,7.8-5.784,9.91c-1.97,1.999-3.766,3.013-5.338,3.013C545.453,255.829,544.438,255.229,543.65,253.996z"/>
	</g>
</g>
</svg>
