<?xml version="1.0" encoding="utf-8"?>
<!-- Generator: Adobe Illustrator 16.0.0, SVG Export Plug-In . SVG Version: 6.00 Build 0)  -->
<!DOCTYPE svg PUBLIC "-//W3C//DTD SVG 1.1//EN" "http://www.w3.org/Graphics/SVG/1.1/DTD/svg11.dtd">
<svg version="1.1" id="Capa_1" xmlns="http://www.w3.org/2000/svg" xmlns:xlink="http://www.w3.org/1999/xlink" x="0px" y="0px"
	 width="308.799px" height="245.051px" viewBox="0 0 308.799 245.051" enable-background="new 0 0 308.799 245.051"
	 xml:space="preserve">
<path fill="#FFFFFF" d="M260.875,206.44c-0.371-1.898-1.366-4.147-2.226-5.002c-0.856-0.857-3.148-1.412-5.068-1.226l-0.558,0.044
	c-1.924,0.188-4.61-0.786-5.974-2.154l-5.698-5.673c-1.368-1.367-2.338-4.052-2.152-5.997v-0.047c0.184-1.946-1.229-3.45-3.148-3.38
	l-0.441,0.025c-1.922,0.092-4.609-0.975-5.976-2.342l-0.878-0.879c-1.369-1.368-1.9-3.771-1.204-5.351
	c0.692-1.573,0.161-3.959-1.206-5.323l-0.462-0.465c-1.367-1.366-3.752-1.899-5.326-1.205c-1.575,0.717-3.983,0.161-5.324-1.18
	l-1.39-1.391c-1.367-1.363-1.924-3.774-1.206-5.348c0.696-1.575,0.162-3.983-1.205-5.35l-11.325-11.325l13.642-13.639
	c9.265-9.239,10.189-25.237,2.041-35.503l-57.433-72.244c-8.173-10.261-23.804-12.739-34.733-5.536L97.387,33.248
	c-10.932,7.227-25.796,22.099-32.998,33.044l-17.3,26.213c-7.223,10.936-4.745,26.592,5.535,34.718l72.229,57.426
	c10.28,8.151,26.234,7.227,35.521-2.013l13.638-13.642l11.325,11.326c1.366,1.362,3.775,1.898,5.347,1.204
	c1.576-0.718,3.963-0.184,5.326,1.181l1.393,1.39c1.363,1.366,1.898,3.775,1.202,5.348c-0.718,1.575-0.161,3.959,1.181,5.328
	l0.462,0.462c1.369,1.364,3.753,1.898,5.328,1.206c1.575-0.699,3.981-0.165,5.351,1.203l0.881,0.879
	c1.363,1.344,2.407,4.054,2.338,5.975l-0.022,0.439c-0.069,1.921,1.455,3.335,3.357,3.174l0.091-0.022
	c1.922-0.186,4.584,0.784,5.95,2.152l5.698,5.695c1.367,1.366,2.339,4.053,2.152,5.975l-0.045,0.579
	c-0.187,1.924,0.37,4.192,1.228,5.049s3.102,1.852,5,2.222l25.45,4.912c1.876,0.369,3.148-0.881,2.779-2.782L260.875,206.44z
	 M145.043,167.652l-38.948-38.927l36.031-36.051L120.66,71.227c-5.048-5.093-13.291-5.093-18.341-0.018
	c-5.071,5.045-5.048,13.315,0,18.332l11.511,11.521l-9.195,9.183L93.126,98.739c-10.141-10.143-10.118-26.581,0-36.701
	c10.119-10.142,26.608-10.142,36.729-0.025l21.463,21.492l8.524-8.527l38.924,38.952L145.043,167.652z M145.043,167.652"/>
</svg>
