<?xml version="1.0" encoding="utf-8"?>
<!-- Generator: Adobe Illustrator 16.0.0, SVG Export Plug-In . SVG Version: 6.00 Build 0)  -->
<!DOCTYPE svg PUBLIC "-//W3C//DTD SVG 1.1//EN" "http://www.w3.org/Graphics/SVG/1.1/DTD/svg11.dtd">
<svg version="1.1" id="Capa_1" xmlns="http://www.w3.org/2000/svg" xmlns:xlink="http://www.w3.org/1999/xlink" x="0px" y="0px"
	 width="600px" height="600px" viewBox="0 0 600 600" enable-background="new 0 0 600 600" xml:space="preserve">
<circle fill="none" stroke="#FFFFFF" stroke-width="4" stroke-miterlimit="10" cx="300" cy="299.999" r="264.293"/>
<text transform="matrix(1 0 0 1 138.6309 470.9062)" fill="#FFFFFF" font-family="'Frutiger-ExtraBlackCn'" font-size="59">CERRAGERO</text>
<path fill="#FFFFFF" d="M431.37,351.537c-0.458-2.343-1.686-5.117-2.745-6.172c-1.058-1.058-3.885-1.742-6.254-1.512l-0.688,0.055
	c-2.373,0.23-5.688-0.971-7.37-2.658l-7.03-7c-1.688-1.687-2.885-4.998-2.655-7.398v-0.058c0.227-2.402-1.516-4.257-3.885-4.171
	l-0.544,0.031c-2.372,0.113-5.688-1.202-7.373-2.889l-1.083-1.085c-1.689-1.688-2.346-4.653-1.486-6.602
	c0.854-1.94,0.199-4.885-1.487-6.567l-0.57-0.574c-1.687-1.686-4.629-2.343-6.571-1.486c-1.944,0.885-4.915,0.199-6.569-1.456
	l-1.714-1.715c-1.688-1.683-2.374-4.657-1.488-6.598c0.858-1.944,0.199-4.915-1.487-6.602l-13.973-13.973l16.831-16.827
	c11.431-11.399,12.571-31.139,2.518-43.804l-70.86-89.136c-10.084-12.659-29.369-15.717-42.854-6.83l-32.372,21.34
	c-13.486,8.916-31.826,27.266-40.712,40.77l-21.345,32.342c-8.912,13.492-5.855,32.809,6.829,42.835l89.115,70.853
	c12.684,10.057,32.368,8.916,43.827-2.483l16.826-16.831l13.973,13.974c1.687,1.682,4.658,2.343,6.598,1.486
	c1.944-0.886,4.889-0.227,6.571,1.456l1.718,1.715c1.683,1.686,2.342,4.658,1.483,6.598c-0.886,1.944-0.199,4.885,1.456,6.574
	l0.57,0.57c1.689,1.683,4.63,2.342,6.574,1.487c1.943-0.862,4.912-0.203,6.602,1.484l1.086,1.085
	c1.683,1.658,2.971,5.001,2.885,7.371l-0.027,0.542c-0.086,2.37,1.795,4.115,4.143,3.916l0.112-0.027
	c2.37-0.229,5.655,0.968,7.341,2.655l7.031,7.027c1.686,1.686,2.885,5,2.655,7.371l-0.056,0.715
	c-0.23,2.373,0.457,5.172,1.515,6.229c1.058,1.056,3.826,2.284,6.169,2.741l31.4,6.06c2.314,0.456,3.885-1.086,3.429-3.433
	L431.37,351.537z M288.456,303.681l-48.055-48.028l44.456-44.479l-26.485-26.464c-6.228-6.283-16.397-6.283-22.628-0.021
	c-6.257,6.225-6.229,16.429,0,22.618l14.202,14.214l-11.346,11.33l-14.199-14.195c-12.512-12.514-12.484-32.796,0-45.281
	c12.484-12.513,32.829-12.513,45.315-0.031l26.481,26.517l10.517-10.521l48.025,48.06L288.456,303.681z M288.456,303.681"/>
</svg>
