<?xml version="1.0" encoding="utf-8"?>
<!-- Generator: Adobe Illustrator 16.0.0, SVG Export Plug-In . SVG Version: 6.00 Build 0)  -->
<!DOCTYPE svg PUBLIC "-//W3C//DTD SVG 1.1//EN" "http://www.w3.org/Graphics/SVG/1.1/DTD/svg11.dtd">
<svg version="1.1" id="Capa_1" xmlns="http://www.w3.org/2000/svg" xmlns:xlink="http://www.w3.org/1999/xlink" x="0px" y="0px"
	 width="600px" height="600px" viewBox="0 0 600 600" enable-background="new 0 0 600 600" xml:space="preserve">
<circle fill="none" stroke="#FFFFFF" stroke-width="4" stroke-miterlimit="10" cx="300" cy="299.999" r="264.293"/>
<text transform="matrix(1 0 0 1 117.002 443.9062)"><tspan x="0" y="0" fill="#FFFFFF" font-family="'Frutiger-ExtraBlackCn'" font-size="61">CONDUCTOR </tspan><tspan x="62.158" y="57" fill="#FFFFFF" font-family="'Frutiger-ExtraBlackCn'" font-size="61">ELEGIDO</tspan></text>
<g>
	<path fill="#FFFFFF" d="M376.354,150.795c-21.84-17.471-48.199-26.673-76.274-26.673c-30.419,0-59.59,11.231-82.206,31.664
		c-25.582,23.241-40.4,56.31-40.4,90.783c0,66.917,53.972,121.356,120.577,122.45c0.625,0.154,1.247,0.154,1.873,0.154
		c0.625,0,1.245,0,1.713-0.154c66.763-0.936,120.892-55.533,120.892-122.45C422.682,209.132,405.836,174.194,376.354,150.795
		L376.354,150.795z M230.351,169.668c19.189-17.314,43.833-26.828,69.729-26.828c23.707,0,46.172,7.798,64.576,22.616
		c22.773,18.094,36.501,44.301,38.842,73.001h-64.268c-3.899-18.093-19.966-31.664-39.15-31.664
		c-19.187,0-35.253,13.571-39.152,31.664h-64.268C198.687,212.096,210.698,187.45,230.351,169.668L230.351,169.668z
		 M290.561,349.986c-49.446-4.521-88.91-43.676-93.744-92.966h64.578c3.743,14.038,14.973,25.113,29.166,28.546V349.986z
		 M300.079,268.251c-11.856,0-21.527-9.67-21.527-21.527c0-11.853,9.671-21.525,21.527-21.525c11.853,0,21.525,9.673,21.525,21.525
		C321.604,258.582,311.932,268.251,300.079,268.251L300.079,268.251z M309.279,349.986v-64.42
		c14.353-3.433,25.739-14.508,29.482-28.546h64.578C398.504,306.465,358.882,345.619,309.279,349.986L309.279,349.986z
		 M309.279,349.986"/>
</g>
</svg>
