<?xml version="1.0" encoding="utf-8"?>
<!-- Generator: Adobe Illustrator 16.0.0, SVG Export Plug-In . SVG Version: 6.00 Build 0)  -->
<!DOCTYPE svg PUBLIC "-//W3C//DTD SVG 1.1//EN" "http://www.w3.org/Graphics/SVG/1.1/DTD/svg11.dtd">
<svg version="1.1" id="Capa_1" xmlns="http://www.w3.org/2000/svg" xmlns:xlink="http://www.w3.org/1999/xlink" x="0px" y="0px"
	 width="308.799px" height="245.051px" viewBox="0 0 308.799 245.051" enable-background="new 0 0 308.799 245.051"
	 xml:space="preserve">
<g>
	<path fill="#FFFFFF" d="M221.756,35.358c-19.268-15.412-42.52-23.529-67.287-23.529c-26.834,0-52.568,9.907-72.52,27.933
		c-22.566,20.502-35.639,49.674-35.639,80.086c0,59.031,47.611,107.056,106.369,108.021c0.551,0.136,1.1,0.136,1.652,0.136
		c0.551,0,1.098,0,1.51-0.136c58.896-0.825,106.646-48.989,106.646-108.021C262.625,86.821,247.764,55.999,221.756,35.358
		L221.756,35.358z M92.957,52.007c16.928-15.273,38.668-23.666,61.512-23.666c20.914,0,40.73,6.88,56.967,19.951
		c20.09,15.962,32.199,39.081,34.266,64.398h-56.695c-3.439-15.96-17.613-27.933-34.537-27.933
		c-16.926,0-31.098,11.973-34.539,27.933H63.236C65.023,89.436,75.621,67.693,92.957,52.007L92.957,52.007z M146.072,211.077
		c-43.619-3.988-78.434-38.529-82.697-82.012h56.969c3.301,12.385,13.207,22.154,25.729,25.183V211.077z M154.469,138.975
		c-10.459,0-18.99-8.53-18.99-18.991c0-10.456,8.531-18.988,18.99-18.988c10.457,0,18.988,8.532,18.988,18.988
		C173.457,130.444,164.926,138.975,154.469,138.975L154.469,138.975z M162.586,211.077v-56.829
		c12.66-3.028,22.705-12.798,26.008-25.183h56.969C241.295,172.685,206.342,207.225,162.586,211.077L162.586,211.077z
		 M162.586,211.077"/>
</g>
</svg>
