<?xml version="1.0" encoding="utf-8"?>
<!-- Generator: Adobe Illustrator 16.0.0, SVG Export Plug-In . SVG Version: 6.00 Build 0)  -->
<!DOCTYPE svg PUBLIC "-//W3C//DTD SVG 1.1//EN" "http://www.w3.org/Graphics/SVG/1.1/DTD/svg11.dtd">
<svg version="1.1" id="Capa_1" xmlns="http://www.w3.org/2000/svg" xmlns:xlink="http://www.w3.org/1999/xlink" x="0px" y="0px"
	 width="308.799px" height="245.051px" viewBox="0 0 308.799 245.051" enable-background="new 0 0 308.799 245.051"
	 xml:space="preserve">
<path fill="#FFFFFF" d="M24.231,197.604h-9.927c-2.258,0-4.104-1.848-4.104-4.104v-12.47c0-2.257,1.846-4.103,4.104-4.103h21.329
	C29.606,182.098,25.463,189.357,24.231,197.604L24.231,197.604z M301.799,181.031v12.47c0,2.256-1.846,4.104-4.104,4.104h-33.232
	c-2.379-16.286-16.365-28.883-33.306-28.883c-16.943,0-30.976,12.597-33.354,28.883H91.019c-1.231-8.247-5.375-15.507-11.406-20.676
	h23.159l-20.249-117.3c-1.887,0.49-3.855,0.778-5.895,0.778c-4.89,0-9.431-1.511-13.188-4.086v16.463
	c7.619,1.89,13.282,8.789,13.282,16.988c0,9.65-7.85,17.501-17.498,17.501c-9.651,0-17.501-7.851-17.501-17.501
	c0-2.327,1.887-4.214,4.215-4.214c2.326,0,4.216,1.887,4.216,4.214c0,5.001,4.065,9.072,9.07,9.072c5.001,0,9.07-4.071,9.07-9.072
	c0-5.003-4.069-9.073-9.07-9.073c-2.329,0-4.216-1.887-4.216-4.215V45.955c-1.148-2.761-1.788-5.783-1.788-8.953
	c0-12.943,10.498-23.442,23.407-23.442c12.942,0,23.403,10.499,23.403,23.442c0,3.31-0.697,6.457-1.938,9.313l84.9,128.137V59.6
	c0-4.512,3.651-8.203,8.203-8.203h38.727c10.913,0,21.088,5.413,27.201,14.438l24.979,37.006c3.652,5.414,5.624,11.814,5.624,18.338
	v55.751h9.968C299.953,176.929,301.799,178.774,301.799,181.031L301.799,181.031z M88.329,37.002
	c0-6.473-5.231-11.703-11.701-11.703c-6.474,0-11.705,5.23-11.705,11.703c0,6.435,5.231,11.701,11.705,11.701
	C83.098,48.703,88.329,43.437,88.329,37.002L88.329,37.002z M119.426,176.929h45.521l-61.561-92.917L119.426,176.929z
	 M260.2,103.781l-19.979-28.388c-0.779-1.065-2.01-1.722-3.362-1.722H205.72c-2.256,0-4.103,1.846-4.103,4.101v28.348
	c0,2.296,1.847,4.104,4.103,4.104h51.116C260.16,110.224,262.084,106.49,260.2,103.781L260.2,103.781z M256.671,202.484
	c0,14.072-11.446,25.52-25.514,25.52c-14.116,0-25.519-11.447-25.519-25.52c0-14.111,11.402-25.556,25.519-25.556
	C245.225,176.929,256.671,188.373,256.671,202.484L256.671,202.484z M243.912,202.484c0-7.054-5.701-12.756-12.755-12.756
	c-7.058,0-12.763,5.702-12.763,12.756c0,7.018,5.705,12.761,12.763,12.761C238.211,215.245,243.912,209.502,243.912,202.484
	L243.912,202.484z M83.148,202.484c0,14.072-11.403,25.52-25.515,25.52c-14.075,0-25.519-11.447-25.519-25.52
	c0-14.111,11.443-25.556,25.519-25.556C71.745,176.929,83.148,188.373,83.148,202.484L83.148,202.484z M70.389,202.484
	c0-7.054-5.701-12.756-12.755-12.756c-7.062,0-12.76,5.702-12.76,12.756c0,7.018,5.698,12.761,12.76,12.761
	C64.688,215.245,70.389,209.502,70.389,202.484L70.389,202.484z M70.389,202.484"/>
</svg>
