<?xml version="1.0" encoding="utf-8"?>
<!-- Generator: Adobe Illustrator 16.0.0, SVG Export Plug-In . SVG Version: 6.00 Build 0)  -->
<!DOCTYPE svg PUBLIC "-//W3C//DTD SVG 1.1//EN" "http://www.w3.org/Graphics/SVG/1.1/DTD/svg11.dtd">
<svg version="1.1" id="Capa_1" xmlns="http://www.w3.org/2000/svg" xmlns:xlink="http://www.w3.org/1999/xlink" x="0px" y="0px"
	 width="600px" height="600px" viewBox="0 0 600 600" enable-background="new 0 0 600 600" xml:space="preserve">
<circle fill="none" stroke="#FFFFFF" stroke-width="4" stroke-miterlimit="10" cx="300" cy="299.999" r="264.293"/>
<path fill="#FFFFFF" d="M168.231,327.728h-9.927c-2.258,0-4.104-1.848-4.104-4.104v-12.47c0-2.257,1.846-4.103,4.104-4.103h21.329
	C173.606,312.221,169.463,319.48,168.231,327.728L168.231,327.728z M445.799,311.154v12.47c0,2.256-1.846,4.104-4.104,4.104h-33.232
	c-2.379-16.286-16.365-28.883-33.306-28.883c-16.943,0-30.976,12.597-33.354,28.883H235.019
	c-1.231-8.247-5.375-15.507-11.406-20.676h23.159l-20.249-117.3c-1.887,0.491-3.855,0.779-5.895,0.779
	c-4.89,0-9.431-1.511-13.188-4.086v16.463c7.619,1.89,13.282,8.789,13.282,16.988c0,9.65-7.85,17.501-17.498,17.501
	c-9.651,0-17.501-7.851-17.501-17.501c0-2.328,1.887-4.214,4.215-4.214c2.326,0,4.216,1.887,4.216,4.214c0,5,4.065,9.072,9.07,9.072
	c5.001,0,9.07-4.072,9.07-9.072c0-5.003-4.069-9.073-9.07-9.073c-2.329,0-4.216-1.887-4.216-4.215v-30.53
	c-1.148-2.76-1.788-5.783-1.788-8.953c0-12.943,10.498-23.442,23.407-23.442c12.942,0,23.403,10.499,23.403,23.442
	c0,3.31-0.697,6.457-1.938,9.313l84.9,128.137V189.723c0-4.512,3.651-8.204,8.203-8.204h38.727c10.913,0,21.088,5.414,27.201,14.438
	l24.979,37.005c3.652,5.415,5.624,11.814,5.624,18.338v55.751h9.968C443.953,307.052,445.799,308.897,445.799,311.154
	L445.799,311.154z M232.329,167.125c0-6.472-5.231-11.704-11.701-11.704c-6.474,0-11.705,5.231-11.705,11.704
	c0,6.435,5.231,11.701,11.705,11.701C227.098,178.826,232.329,173.56,232.329,167.125L232.329,167.125z M263.426,307.052h45.521
	l-61.561-92.917L263.426,307.052z M404.2,233.905l-19.979-28.388c-0.779-1.065-2.01-1.722-3.362-1.722H349.72
	c-2.256,0-4.103,1.846-4.103,4.101v28.348c0,2.296,1.847,4.104,4.103,4.104h51.116C404.16,240.347,406.084,236.613,404.2,233.905
	L404.2,233.905z M400.671,332.607c0,14.072-11.446,25.52-25.514,25.52c-14.116,0-25.519-11.447-25.519-25.52
	c0-14.111,11.402-25.556,25.519-25.556C389.225,307.052,400.671,318.496,400.671,332.607L400.671,332.607z M387.912,332.607
	c0-7.054-5.701-12.756-12.755-12.756c-7.058,0-12.763,5.702-12.763,12.756c0,7.018,5.705,12.761,12.763,12.761
	C382.211,345.368,387.912,339.625,387.912,332.607L387.912,332.607z M227.148,332.607c0,14.072-11.403,25.52-25.515,25.52
	c-14.075,0-25.519-11.447-25.519-25.52c0-14.111,11.443-25.556,25.519-25.556C215.745,307.052,227.148,318.496,227.148,332.607
	L227.148,332.607z M214.389,332.607c0-7.054-5.701-12.756-12.755-12.756c-7.062,0-12.76,5.702-12.76,12.756
	c0,7.018,5.698,12.761,12.76,12.761C208.688,345.368,214.389,339.625,214.389,332.607L214.389,332.607z M214.389,332.607"/>
<text transform="matrix(1 0 0 1 213.6719 455.9062)" fill="#FFFFFF" font-family="'Frutiger-ExtraBlackCn'" font-size="66.1272">GRÚA</text>
</svg>
