<?xml version="1.0" encoding="utf-8"?>
<!-- Generator: Adobe Illustrator 16.0.0, SVG Export Plug-In . SVG Version: 6.00 Build 0)  -->
<!DOCTYPE svg PUBLIC "-//W3C//DTD SVG 1.1//EN" "http://www.w3.org/Graphics/SVG/1.1/DTD/svg11.dtd">
<svg version="1.1" id="Capa_1" xmlns="http://www.w3.org/2000/svg" xmlns:xlink="http://www.w3.org/1999/xlink" x="0px" y="0px"
	 width="308.799px" height="245.051px" viewBox="0 0 308.799 245.051" enable-background="new 0 0 308.799 245.051"
	 xml:space="preserve">
<g>
	<path fill="#FFFFFF" d="M176.77,146.993v70.479c0,4.605-3.371,8.019-7.566,8.019h-27.469c-4.607,0-8.021-3.782-8.021-8.019v-70.479
		c-18.956-8.019-32.071-27.019-32.071-48.976c0-17.723,8.019-33.309,21.094-43.054c0,0,0,41.367,0.41,41.367l26.606,26.606
		c2.961,2.959,8.016,2.959,10.979,0l26.604-26.606V55.006c13.116,10.155,21.505,25.328,21.505,43.052
		C208.841,120.058,195.807,138.604,176.77,146.993L176.77,146.993z M280.229,139.014v79.363c0,3.371-2.552,6.333-5.925,6.333
		h-31.249c-3.373,0-5.922-2.962-5.922-6.333v-19.861h-53.993v-48.111c13.94-7.566,24.881-20.271,29.525-35.444h32.898L219,59.199
		c-5.51-10.979-10.159-13.527-21.506-13.527h-86.106c-11.393,0-15.585,2.549-21.098,13.527L63.687,114.96h32.896
		c4.608,15.173,15.585,27.878,29.525,35.444v48.152H72.074v19.861c0,3.373-2.548,6.332-5.919,6.332H34.901
		c-3.368,0-6.332-2.959-6.332-6.332v-79.404c0-7.154,1.234-13.117,5.018-21.095l38.982-81.048
		c4.605-9.293,16.489-17.312,27.014-17.312h109.712c10.567,0,22.326,7.565,27.017,17.312l38.818,81.048
		C278.912,125.484,280.229,131.408,280.229,139.014L280.229,139.014z M50.158,156.325c0,10.98,8.883,19.452,19.45,19.452
		s19.45-8.432,19.45-19.452c0-11.02-8.428-19.86-19.45-19.86C58.587,136.465,50.158,145.346,50.158,156.325L50.158,156.325z
		 M259.955,156.325c0-10.979-8.881-19.86-19.86-19.86s-19.45,8.881-19.45,19.86c0,10.98,8.428,19.452,19.45,19.452
		C251.114,175.777,259.955,167.264,259.955,156.325L259.955,156.325z M259.955,156.325"/>
</g>
</svg>
