<?xml version="1.0" encoding="utf-8"?>
<!-- Generator: Adobe Illustrator 16.0.0, SVG Export Plug-In . SVG Version: 6.00 Build 0)  -->
<!DOCTYPE svg PUBLIC "-//W3C//DTD SVG 1.1//EN" "http://www.w3.org/Graphics/SVG/1.1/DTD/svg11.dtd">
<svg version="1.1" id="Capa_1" xmlns="http://www.w3.org/2000/svg" xmlns:xlink="http://www.w3.org/1999/xlink" x="0px" y="0px"
	 width="600px" height="600px" viewBox="0 0 600 600" enable-background="new 0 0 600 600" xml:space="preserve">
<circle fill="none" stroke="#FFFFFF" stroke-width="4" stroke-miterlimit="10" cx="300" cy="299.999" r="264.293"/>
<text transform="matrix(1 0 0 1 112.29 440.9062)" fill="#FFFFFF" font-family="'Frutiger-ExtraBlackCn'" font-size="56">CARRO TALLER</text>
<g>
	<path fill="#FFFFFF" d="M322.37,271.116v70.479c0,4.605-3.371,8.019-7.566,8.019h-27.469c-4.607,0-8.021-3.782-8.021-8.019v-70.479
		c-18.956-8.019-32.071-27.019-32.071-48.976c0-17.723,8.019-33.309,21.094-43.054c0,0,0,41.367,0.41,41.367l26.606,26.606
		c2.961,2.959,8.016,2.959,10.979,0l26.604-26.606v-41.325c13.116,10.155,21.505,25.328,21.505,43.052
		C354.441,244.181,341.407,262.727,322.37,271.116L322.37,271.116z M425.83,263.137V342.5c0,3.371-2.552,6.333-5.925,6.333h-31.249
		c-3.373,0-5.922-2.962-5.922-6.333v-19.861h-53.993v-48.111c13.94-7.566,24.881-20.271,29.525-35.444h32.898l-26.564-55.761
		c-5.51-10.979-10.159-13.527-21.506-13.527h-86.106c-11.393,0-15.585,2.549-21.098,13.527l-26.604,55.761h32.896
		c4.608,15.173,15.585,27.878,29.525,35.444v48.152h-54.033v19.861c0,3.373-2.548,6.332-5.919,6.332h-31.254
		c-3.368,0-6.332-2.959-6.332-6.332v-79.404c0-7.154,1.234-13.117,5.018-21.095l38.982-81.048
		c4.605-9.293,16.489-17.312,27.014-17.312h109.712c10.567,0,22.326,7.565,27.017,17.312l38.818,81.048
		C424.513,249.607,425.83,255.531,425.83,263.137L425.83,263.137z M195.759,280.448c0,10.98,8.883,19.452,19.45,19.452
		s19.45-8.432,19.45-19.452c0-11.02-8.428-19.86-19.45-19.86C204.188,260.588,195.759,269.469,195.759,280.448L195.759,280.448z
		 M405.556,280.448c0-10.979-8.881-19.86-19.86-19.86s-19.45,8.881-19.45,19.86c0,10.98,8.428,19.452,19.45,19.452
		C396.715,299.9,405.556,291.387,405.556,280.448L405.556,280.448z M405.556,280.448"/>
</g>
</svg>
